ply
format ascii 1.0
comment Created by Blender 3.4.1 - www.blender.org
element vertex 106
property float x
property float y
property float z
property uchar red
property uchar green
property uchar blue
property uchar alpha
element face 162
property list uchar uint vertex_indices
end_header
0.487904 -0.467500 0.000000 0 0 255 255
0.345000 -0.502500 -0.142904 0 0 255 255
0.345000 -0.467500 -0.142904 0 0 255 255
0.000000 -0.467500 -0.487904 0 0 255 255
0.142904 -0.502500 -0.345000 0 0 255 255
0.000000 -0.502500 -0.487904 0 0 255 255
0.000000 -0.502500 0.487904 0 0 255 255
0.142904 -0.467500 0.345000 0 0 255 255
0.000000 -0.467500 0.487904 0 0 255 255
0.345000 -0.502500 0.142904 0 0 255 255
0.487904 -0.502500 0.000000 0 0 255 255
-0.487904 -0.502500 0.000000 0 0 255 255
-0.345000 -0.467500 0.142904 0 0 255 255
-0.487904 -0.467500 0.000000 0 0 255 255
-0.142904 -0.502500 0.345000 0 0 255 255
-0.142904 -0.467500 -0.345000 0 0 255 255
-0.345000 -0.467500 -0.142904 0 0 255 255
-0.345000 -0.502500 -0.142904 0 0 255 255
-0.151188 -0.467500 -0.325000 0 0 255 255
-0.134619 -0.467500 -0.325000 0 0 255 255
-0.325000 -0.467500 0.134619 0 0 255 255
-0.336716 -0.467500 0.122904 0 0 255 255
0.122904 -0.467500 0.336716 0 0 255 255
0.134619 -0.467500 0.325000 0 0 255 255
0.162904 -0.467500 0.325000 0 0 255 255
0.151188 -0.467500 0.325000 0 0 255 255
0.336716 -0.467500 -0.122904 0 0 255 255
0.345000 -0.467500 -0.114619 0 0 255 255
0.325000 -0.467500 0.134619 0 0 255 255
0.345000 -0.467500 0.142904 0 0 255 255
0.345000 -0.467500 0.114619 0 0 255 255
-0.162904 -0.467500 -0.325000 0 0 255 255
-0.325000 -0.467500 -0.134619 0 0 255 255
-0.345000 -0.467500 -0.114619 0 0 255 255
-0.345000 -0.467500 0.114619 0 0 255 255
0.325000 -0.467500 0.162904 0 0 255 255
0.325000 -0.467500 0.325000 0 0 255 255
-0.142904 -0.467500 0.345000 0 0 255 255
-0.162904 -0.467500 0.325000 0 0 255 255
-0.325000 -0.467500 0.325000 0 0 255 255
-0.114619 -0.467500 -0.345000 0 0 255 255
0.000000 -0.467500 -0.459619 0 0 255 255
0.459619 -0.467500 0.000000 0 0 255 255
0.345000 -0.502500 0.345000 0 0 255 255
0.345000 -0.467500 0.345000 0 0 255 255
0.345000 -0.467500 -0.345000 0 0 255 255
0.345000 -0.502500 -0.345000 0 0 255 255
-0.345000 -0.467500 0.345000 0 0 255 255
0.142904 -0.502500 0.345000 0 0 255 255
-0.345000 -0.502500 -0.345000 0 0 255 255
-0.345000 -0.467500 -0.345000 0 0 255 255
-0.345000 -0.502500 0.345000 0 0 255 255
-0.345000 -0.502500 0.142904 0 0 255 255
0.142904 -0.467500 -0.345000 0 0 255 255
-0.142904 -0.502500 -0.345000 0 0 255 255
-0.122904 -0.467500 -0.336716 0 0 255 255
0.134619 -0.467500 0.325000 0 0 255 255
0.325000 -0.467500 -0.134619 0 0 255 255
0.325000 -0.467500 -0.151188 0 0 255 255
-0.325000 -0.467500 0.151188 0 0 255 255
-0.325000 -0.467500 0.162904 0 0 255 255
-0.134619 -0.467500 0.325000 0 0 255 255
0.114619 -0.467500 0.345000 0 0 255 255
0.134619 -0.467500 -0.325000 0 0 255 255
0.162904 -0.467500 -0.325000 0 0 255 255
0.325000 -0.467500 -0.162904 0 0 255 255
-0.459619 -0.467500 0.000000 0 0 255 255
0.000000 -0.467500 0.459619 0 0 255 255
0.325000 -0.467500 -0.325000 0 0 255 255
-0.325000 -0.467500 -0.162904 0 0 255 255
-0.325000 -0.467500 -0.325000 0 0 255 255
0.325000 -0.502500 -0.134619 0 0 255 255
0.134619 -0.502500 -0.325000 0 0 255 255
0.114619 -0.467500 -0.345000 0 0 255 255
0.134619 -0.502500 0.325000 0 0 255 255
0.325000 -0.502500 0.134619 0 0 255 255
-0.459619 -0.502500 0.000000 0 0 255 255
-0.134619 -0.502500 0.325000 0 0 255 255
-0.114619 -0.467500 0.345000 0 0 255 255
0.000000 -0.502500 -0.459619 0 0 255 255
-0.325000 -0.502500 -0.134619 0 0 255 255
0.325000 -0.502500 0.325000 0 0 255 255
-0.325000 -0.502500 0.325000 0 0 255 255
-0.325000 -0.502500 -0.325000 0 0 255 255
-0.325000 -0.502500 0.134619 0 0 255 255
0.325000 -0.502500 -0.325000 0 0 255 255
-0.134619 -0.502500 -0.325000 0 0 255 255
-0.134619 -0.467500 -0.325000 0 0 255 255
0.459619 -0.502500 0.000000 0 0 255 255
0.000000 -0.502500 0.459619 0 0 255 255
-0.325000 -0.477500 0.134619 255 255 0 255
0.134619 -0.477500 0.325000 255 255 0 255
-0.134619 -0.477500 -0.325000 255 255 0 255
0.325000 -0.477500 -0.134619 255 255 0 255
0.325000 -0.477500 0.134619 255 255 0 255
-0.325000 -0.477500 -0.134619 255 255 0 255
0.325000 -0.477500 0.325000 255 255 0 255
-0.325000 -0.477500 0.325000 255 255 1 255
-0.134619 -0.477500 0.325000 255 255 0 255
0.134619 -0.477500 -0.325000 255 255 0 255
0.000000 -0.477500 -0.459619 255 255 0 255
0.459619 -0.477500 0.000000 255 255 0 255
-0.459619 -0.477500 0.000000 255 255 0 255
0.000000 -0.477500 0.459619 255 255 0 255
0.325000 -0.477500 -0.325000 255 255 0 255
-0.325000 -0.477500 -0.325000 255 255 0 255
3 0 1 2
3 3 4 5
3 6 7 8
3 0 9 10
3 11 12 13
3 8 14 6
3 5 15 3
3 11 16 17
3 18 19 15
3 12 20 21
3 22 7 23
3 24 25 7
3 2 26 27
3 28 29 30
3 18 15 31
3 32 16 33
3 21 34 12
3 29 35 36
3 37 38 39
3 3 40 41
3 0 27 42
3 43 29 44
3 45 1 46
3 47 14 37
3 44 48 43
3 49 16 50
3 51 12 52
3 46 53 45
3 50 54 49
3 15 19 55
3 23 25 56
3 57 2 58
3 59 12 60
3 37 61 38
3 7 22 62
3 53 63 64
3 55 40 15
3 2 65 58
3 13 34 66
3 8 62 67
3 53 64 68
3 16 69 70
3 27 26 71
3 72 63 73
3 22 23 74
3 75 28 30
3 76 66 34
3 77 61 78
3 79 41 40
3 80 32 33
3 81 36 35
3 58 65 71
3 82 39 38
3 74 25 24
3 83 70 69
3 84 59 60
3 85 68 64
3 18 31 86
3 0 10 1
3 3 53 4
3 6 48 7
3 0 29 9
3 11 52 12
3 8 37 14
3 5 54 15
3 11 13 16
3 18 87 19
3 12 59 20
3 28 35 29
3 32 69 16
3 36 24 44
3 24 7 44
3 44 29 36
3 39 60 47
3 60 12 47
3 47 37 39
3 73 53 3
3 3 15 40
3 41 73 3
3 42 30 29
3 0 2 27
3 42 29 0
3 43 9 29
3 45 2 1
3 47 51 14
3 44 7 48
3 49 17 16
3 51 47 12
3 46 4 53
3 50 15 54
3 23 7 25
3 57 26 2
3 37 78 61
3 53 73 63
3 66 33 16
3 13 12 34
3 66 16 13
3 78 37 8
3 8 7 62
3 67 78 8
3 68 65 45
3 65 2 45
3 45 53 68
3 70 31 50
3 31 15 50
3 50 16 70
3 26 57 71
3 71 88 27
3 88 42 27
3 73 41 79
3 79 72 73
3 23 56 74
3 74 89 62
3 89 67 62
3 62 22 74
3 30 42 88
3 88 75 30
3 34 21 84
3 21 20 84
3 34 84 76
3 67 89 78
3 89 77 78
3 55 19 87
3 87 86 55
3 86 79 40
3 55 86 40
3 66 76 33
3 76 80 33
3 35 28 75
3 75 81 35
3 65 68 85
3 85 71 65
3 71 57 58
3 38 61 77
3 77 82 38
3 36 81 24
3 81 74 24
3 74 56 25
3 32 80 69
3 80 83 69
3 39 82 60
3 82 84 60
3 84 20 59
3 63 72 64
3 72 85 64
3 31 70 83
3 83 86 31
3 86 87 18
3 90 91 92
3 93 91 94
3 90 92 95
3 91 96 94
3 90 97 98
3 99 100 92
3 93 94 101
3 91 93 92
3 98 91 90
3 92 93 99
3 90 95 102
3 91 98 103
3 93 104 99
3 92 105 95
